<?xml version="1.0" standalone="no"?>
<!DOCTYPE svg PUBLIC "-//W3C//DTD SVG 20010904//EN"
 "http://www.w3.org/TR/2001/REC-SVG-20010904/DTD/svg10.dtd">
<svg version="1.0" xmlns="http://www.w3.org/2000/svg"
 width="300.000000pt" height="196.000000pt" viewBox="0 0 300.000000 196.000000"
 preserveAspectRatio="xMidYMid meet">
<metadata>
Created by potrace 1.10, written by Peter Selinger 2001-2011
</metadata>
<g transform="translate(0.000000,196.000000) scale(0.100000,-0.100000)"
fill="#000000" stroke="none">
<path d="M1385 1581 c-139 -67 -204 -159 -205 -287 0 -64 4 -81 40 -151 22
-44 55 -95 73 -114 50 -52 133 -89 196 -89 66 0 187 50 247 103 94 83 126 225
75 335 -13 28 -27 49 -31 47 -4 -2 -18 7 -31 22 -38 41 -116 73 -179 73 -129
-1 -217 -92 -196 -204 12 -64 59 -105 131 -116 l40 -6 -32 -17 c-109 -58 -224
25 -224 160 0 135 90 238 219 250 77 7 133 -18 212 -93 33 -31 60 -54 60 -50
0 18 -53 87 -88 115 -95 75 -183 81 -307 22z m-42 -63 c-50 -53 -73 -109 -73
-177 0 -71 12 -106 48 -144 38 -40 74 -57 124 -57 78 0 142 58 143 130 0 46
18 38 35 -16 23 -68 -13 -144 -84 -181 -68 -35 -196 -11 -266 50 l-25 22 24
-28 c14 -15 49 -39 78 -54 106 -51 241 -14 284 80 23 53 23 81 0 134 -23 49
-58 75 -115 83 l-41 7 37 16 c51 23 99 21 139 -6 125 -82 93 -302 -55 -380
-62 -33 -157 -30 -217 5 -45 26 -144 126 -135 135 2 3 -7 28 -20 56 -48 104
-22 208 75 305 56 56 95 73 44 20z m338 -46 c122 -63 167 -196 107 -315 -22
-45 -79 -109 -122 -140 l-31 -21 34 39 c97 112 102 256 12 338 -23 20 -56 39
-76 43 -85 16 -165 -41 -175 -124 l-6 -47 -18 34 c-23 42 -18 116 10 154 51
70 171 88 265 39z m-118 -161 c7 -7 7 -21 1 -43 -11 -38 -39 -47 -85 -28 -31
13 -37 37 -18 72 9 17 18 19 51 15 22 -3 45 -10 51 -16z"/>
<path d="M1343 899 c-47 -17 -55 -48 -51 -188 4 -137 12 -161 53 -161 30 0 53
28 57 70 2 19 8 34 13 32 9 -2 11 -9 14 -54 1 -10 11 -27 23 -38 20 -19 31
-20 93 -14 38 3 83 6 99 5 16 0 37 4 47 9 12 7 26 6 44 -2 20 -9 31 -8 50 2
20 10 28 11 37 2 18 -18 43 -15 63 8 17 19 18 19 43 0 28 -22 69 -26 105 -9
18 8 30 8 46 -1 17 -9 26 -9 37 0 7 7 22 9 31 5 10 -4 63 -6 118 -6 82 1 102
5 113 19 16 21 16 270 0 290 -17 20 -46 14 -65 -14 l-16 -26 -13 25 c-16 30
-39 40 -64 27 -13 -7 -29 -5 -53 5 -34 14 -84 12 -101 -5 -5 -5 -23 -2 -42 8
-27 12 -41 13 -68 5 -19 -6 -40 -7 -47 -2 -8 5 -72 8 -144 8 -71 1 -141 1
-154 1 -14 0 -34 -9 -46 -20 l-22 -20 -27 21 c-18 14 -34 19 -51 15 -13 -3
-42 -2 -63 2 -21 5 -48 5 -59 1z m77 -44 c7 -8 15 -35 18 -60 6 -53 -16 -95
-51 -95 -20 0 -22 -5 -22 -62 0 -52 -3 -63 -17 -66 -17 -3 -18 9 -18 147 l0
151 39 0 c22 0 44 -6 51 -15z m80 -115 l0 -130 25 0 c16 0 25 -6 25 -15 0 -11
-12 -15 -45 -15 l-45 0 0 145 c0 138 1 145 20 145 19 0 20 -7 20 -130z m170
104 c6 -14 10 -81 10 -150 0 -117 -1 -124 -20 -124 -17 0 -20 7 -20 45 0 36
-3 45 -17 45 -14 0 -18 -9 -18 -41 0 -32 -4 -43 -17 -45 -16 -2 -18 10 -18
128 0 71 5 138 10 149 8 13 21 19 46 19 28 0 36 -5 44 -26z m140 7 c0 -14 -5
-18 -21 -14 -20 6 -20 3 -18 -128 2 -123 1 -134 -15 -134 -17 0 -18 12 -17
133 2 131 2 134 -18 127 -17 -5 -21 -2 -21 14 0 19 6 21 55 21 47 0 55 -3 55
-19z m100 4 c0 -8 -9 -15 -20 -15 -18 0 -20 -7 -20 -55 0 -42 3 -55 15 -55 8
0 15 -7 15 -15 0 -8 -7 -15 -15 -15 -12 0 -15 -14 -15 -65 0 -58 -2 -65 -20
-65 -19 0 -20 7 -20 150 l0 150 40 0 c29 0 40 -4 40 -15z m120 -4 c5 -11 10
-70 10 -132 0 -122 -10 -149 -56 -149 -41 0 -54 34 -54 147 0 130 8 153 54
153 25 0 38 -6 46 -19z m144 -3 c18 -25 21 -70 6 -97 -6 -11 -6 -30 0 -49 4
-18 10 -53 11 -79 3 -42 1 -48 -16 -48 -18 0 -21 9 -25 70 -4 57 -8 70 -23 73
-17 3 -18 -3 -16 -70 2 -64 0 -73 -15 -73 -16 0 -18 14 -19 148 l-2 147 42 0
c32 0 46 -5 57 -22z m100 -65 c9 -47 18 -88 20 -90 4 -5 7 6 27 115 9 50 15
62 30 62 18 0 19 -10 19 -150 0 -143 -1 -150 -20 -150 -18 0 -20 7 -21 68 l-2
67 -10 -67 c-6 -43 -14 -68 -22 -68 -8 0 -16 25 -22 68 l-10 67 -2 -67 c-1
-61 -3 -68 -21 -68 -19 0 -20 7 -20 150 0 140 1 150 19 150 16 0 21 -14 35
-87z"/>
<path d="M1365 785 c0 -46 3 -55 18 -55 14 0 17 9 17 55 0 46 -3 55 -17 55
-15 0 -18 -9 -18 -55z"/>
<path d="M1608 765 c-3 -66 -1 -75 15 -75 15 0 17 10 17 75 0 58 -3 75 -14 75
-11 0 -15 -18 -18 -75z"/>
<path d="M1970 725 c0 -91 3 -115 14 -115 19 0 26 32 26 122 0 85 -5 108 -26
108 -11 0 -14 -23 -14 -115z"/>
<path d="M2112 793 c2 -35 7 -48 18 -48 11 0 16 13 18 48 3 42 1 47 -18 47
-19 0 -21 -5 -18 -47z"/>
<path d="M800 886 c-14 -8 -29 -11 -35 -8 -17 11 -119 11 -132 0 -9 -8 -13
-51 -13 -153 0 -155 3 -164 56 -165 16 0 39 0 52 0 12 0 28 0 35 0 6 1 53 -1
102 -3 67 -3 96 -1 113 10 21 13 26 13 40 0 15 -13 39 -16 145 -19 19 0 38 9
55 26 25 24 27 35 31 117 4 112 -4 155 -34 185 -25 25 -86 33 -115 15 -8 -6
-19 -7 -25 -3 -20 13 -130 11 -150 -2 -18 -12 -24 -11 -40 0 -24 18 -53 17
-85 0z m-120 -79 c0 -50 3 -64 15 -64 12 0 15 14 15 64 0 56 2 63 20 63 19 0
20 -7 20 -150 0 -143 -1 -150 -20 -150 -18 0 -20 7 -20 75 0 60 -3 75 -15 75
-12 0 -15 -15 -15 -75 0 -68 -2 -75 -20 -75 -19 0 -20 7 -20 150 0 143 1 150
20 150 18 0 20 -7 20 -63z m201 46 c10 -12 14 -51 14 -147 0 -116 -2 -131 -17
-134 -15 -3 -18 4 -18 42 0 40 -3 46 -21 46 -18 0 -20 -5 -17 -42 2 -37 0 -43
-17 -43 -19 0 -20 6 -18 133 1 85 6 139 14 148 16 19 63 18 80 -3z m129 2 c0
-8 -9 -15 -20 -15 -18 0 -20 -7 -20 -55 0 -42 3 -55 15 -55 8 0 15 -7 15 -15
0 -8 -7 -15 -15 -15 -12 0 -15 -14 -15 -65 0 -58 -2 -65 -20 -65 -19 0 -20 7
-20 150 l0 150 40 0 c29 0 40 -4 40 -15z m60 -136 c0 -138 -1 -150 -17 -147
-16 3 -18 20 -21 151 -2 142 -2 147 18 147 19 0 20 -6 20 -151z m131 134 c10
-11 14 -48 14 -129 0 -128 -6 -140 -68 -146 l-38 -3 -2 148 -2 147 41 0 c26 0
47 -6 55 -17z"/>
<path d="M826 825 c-3 -9 -6 -43 -6 -76 0 -53 2 -59 20 -59 19 0 21 5 18 72
-3 69 -18 99 -32 63z"/>
<path d="M1140 725 c0 -106 2 -116 18 -113 15 3 17 16 17 113 0 97 -2 110 -17
113 -16 3 -18 -7 -18 -113z"/>
<path d="M1214 490 c-17 -4 -36 -10 -42 -14 -6 -4 -20 -3 -30 3 -11 6 -24 6
-35 -1 -13 -7 -23 -6 -33 3 -12 10 -18 9 -30 -3 -24 -23 -34 -84 -19 -105 13
-17 44 -18 480 -18 455 0 467 0 481 20 16 21 11 79 -7 102 -10 12 -67 11 -87
-1 -6 -3 -22 -1 -36 5 -20 9 -29 9 -41 -1 -12 -10 -18 -10 -32 1 -18 16 -129
21 -155 8 -9 -5 -19 -5 -22 -1 -6 11 -311 10 -322 0 -3 -4 -14 -4 -23 1 -9 4
-30 5 -47 1z m-135 -61 c12 -54 7 -74 -10 -49 -8 11 -12 12 -16 3 -11 -29 -25
-11 -19 25 16 89 29 95 45 21z m61 0 c0 -21 5 -39 10 -39 6 0 10 -4 10 -10 0
-5 -11 -10 -25 -10 -23 0 -25 3 -25 48 0 27 3 52 6 55 14 13 24 -6 24 -44z
m81 13 c0 -26 1 -25 13 7 14 41 21 34 30 -31 5 -32 4 -48 -3 -48 -6 0 -12 10
-12 23 l-2 22 -4 -22 c-2 -13 -8 -23 -12 -23 -4 0 -13 10 -19 23 l-11 22 0
-22 c-1 -13 -6 -23 -11 -23 -9 0 -6 62 6 98 6 21 24 3 25 -26z m99 -15 c1 -34
3 -39 11 -24 6 10 8 29 5 42 -3 13 -2 27 4 30 16 10 21 -17 12 -60 -6 -30 -13
-40 -27 -40 -15 0 -21 10 -27 44 -8 46 -3 65 13 56 5 -4 9 -25 9 -48z m120 48
c0 -2 -5 -15 -11 -29 -10 -20 -9 -30 5 -51 13 -20 14 -25 3 -25 -8 0 -19 10
-25 23 l-11 22 0 -22 c-2 -47 -21 -21 -21 27 0 28 5 50 10 50 6 0 10 -8 11
-17 0 -14 3 -13 11 5 10 19 28 31 28 17z m50 -26 c0 -10 5 -19 10 -19 6 0 10
12 10 26 0 14 4 23 10 19 6 -3 10 -28 10 -56 0 -27 -4 -49 -10 -49 -5 0 -10 9
-10 20 0 11 -4 20 -10 20 -5 0 -10 -9 -10 -20 0 -11 -4 -20 -10 -20 -5 0 -10
25 -10 56 0 34 4 53 10 49 6 -3 10 -15 10 -26z m116 -30 c10 -45 5 -64 -11
-39 -5 8 -11 7 -21 -1 -21 -17 -25 -8 -13 37 21 82 27 82 45 3z m167 16 c-1
-15 2 -36 8 -46 7 -15 6 -19 -6 -19 -8 0 -15 6 -16 13 0 10 -2 10 -6 0 -11
-30 -23 -9 -23 42 0 52 1 54 23 46 16 -7 21 -16 20 -36z m86 -6 c12 -54 7 -74
-10 -49 -8 11 -12 12 -16 3 -11 -29 -25 -11 -19 25 16 89 29 95 45 21z m74 11
c4 -24 4 -23 12 8 4 17 11 32 15 32 7 0 20 -58 20 -92 0 -26 -20 -22 -21 5
l-2 22 -4 -22 c-5 -27 -23 -31 -23 -5 -1 16 -1 16 -11 0 -17 -31 -27 -20 -22
25 2 23 7 48 9 56 6 19 21 3 27 -29z m-235 -8 c4 -38 -12 -62 -39 -62 -16 0
-19 8 -19 51 0 49 1 50 28 47 23 -2 28 -8 30 -36z"/>
<path d="M1660 419 c0 -17 4 -28 10 -24 6 3 10 17 10 31 0 13 -4 24 -10 24 -5
0 -10 -14 -10 -31z"/>
</g>
</svg>
